<?xml version="1.0" encoding="UTF-8" standalone="no"?> <svg xmlns:dc="http://purl.org/dc/elements/1.1/" xmlns:cc="http://creativecommons.org/ns#" xmlns:rdf="http://www.w3.org/1999/02/22-rdf-syntax-ns#" xmlns:svg="http://www.w3.org/2000/svg" xmlns="http://www.w3.org/2000/svg" height="75.833" width="227.2" xml:space="preserve" viewBox="0 0 227.2 75.833" y="0px" x="0px" id="Layer_1" version="1.1"><metadata id="metadata53"></metadata><defs id="defs51"></defs> <style id="style2" type="text/css"> .st0{fill:#551520;} .st1{fill:#FBB040;} .st2{display:none;} .st3{display:inline;fill:#FBB040;} .st4{display:inline;fill:none;stroke:#551520;stroke-width:1.1248;stroke-linecap:round;stroke-linejoin:round;stroke-miterlimit:10;} .st5{fill:none;stroke:#551520;stroke-width:0.4987;stroke-miterlimit:10;} </style> <g transform="translate(-28.1,-103.667)" id="g8"> <path style="fill:#551520" id="path4" d="m 88.4,125.3 c -0.2,-0.4 -0.4,-0.9 -0.7,-1.3 -0.6,-0.8 -1.5,-1.4 -2.5,-1.8 -1,-0.3 -2.1,-0.4 -3.1,-0.1 -1,0.3 -1.8,0.8 -2.4,1.4 -0.6,0.6 -1.3,1.4 -1.9,2.4 -0.3,0.5 -0.6,1.1 -0.9,1.6 l -0.9,1.7 c -0.5,0.9 -1,1.9 -1.5,2.8 -1.6,3 -3.3,6 -4.9,9 -2.2,4 -4.3,8 -6.3,11.9 -0.5,0.9 -0.9,1.8 -1.4,2.7 l -0.6,1.1 c -0.4,0.7 -0.7,1.4 -1.1,2 l -1,-2.1 -1.8,-3.6 c -1.9,-3.9 -3.8,-7.7 -5.6,-11.7 -0.9,-2 -1.8,-3.9 -2.8,-5.9 -1,-2.2 -2,-4.4 -3,-6.6 l -1.3,-2.7 c -0.4,-0.9 -0.8,-1.9 -1.4,-2.6 -0.5,-0.7 -1,-1.3 -1.5,-1.8 -0.5,-0.5 -1,-0.8 -1.6,-1.2 -1.2,-0.7 -2.8,-1 -4.4,-0.9 -1.6,0.1 -3.2,0.8 -4.4,1.7 -0.7,0.5 -1.2,1.2 -1.7,1.8 -0.4,0.7 -0.9,1.6 -1.2,2.8 -0.1,0.6 -0.2,1.4 -0.2,2.2 0,0.8 0,1.6 0,2.4 0,1.4 0,2.9 -0.1,4.4 -0.1,3.5 -0.1,7.2 -0.1,10.9 0,7.4 0.1,14.8 0.2,19.9 1.3,13.5 4.7,6.6 5,5.9 v 2.4 c 0,0.6 0.1,1.1 0.4,1.6 -0.3,-0.5 -0.5,-1.1 -0.5,-1.6 v 0.1 c 0,0.7 0.3,1.4 0.6,1.9 0,0 0,0 0,-0.1 0.1,0.2 0.3,0.4 0.5,0.6 0.7,0.7 1.5,1 2.5,1 1,0 1.8,-0.3 2.5,-1 0.7,-0.7 1,-1.5 1,-2.5 v -31.4 l 5.7,11.5 c 0.5,1.2 0.8,2.2 0.8,2.2 1.9,3.7 3.7,7.3 5.4,10.8 0.9,1.8 1.8,3.6 2.7,5.4 0.4,0.9 0.9,1.9 1.4,2.8 0.4,0.9 1.1,1.8 2,2.2 0.6,0.1 1.1,0 1.9,0.1 0.6,0.1 1.3,0 1.8,-0.3 0.5,-0.3 0.9,-0.8 1.2,-1.3 0.3,-0.5 0.6,-1 0.9,-1.6 0.2,-0.4 0.4,-0.8 0.5,-1.2 -0.1,0.2 -0.1,0.4 -0.2,0.6 1.2,-2.3 2.4,-4.7 3.6,-7 0.2,-0.5 0.5,-1.1 0.7,-1.5 0.7,-1.7 1.5,-3.5 2.3,-4.2 0.2,-0.4 0.4,-0.7 0.6,-1.1 0,0 -0.1,0.1 -0.2,0.1 0.1,-0.1 0.2,-0.3 0.3,-0.3 0.8,-1.4 1.5,-2.9 2.3,-4.4 1.4,-2.6 2.8,-5.3 4.3,-8 0.1,-0.2 0.2,-0.4 0.3,-0.6 -0.1,5.1 -0.2,10.1 -0.3,15.1 0,2.8 -0.1,5.6 -0.1,8.4 v 2.3 1.1 c 0,0.5 0,1 0.2,1.5 0.3,1.1 1,2 1.8,2.6 0.9,0.7 2,1 3,1 1,0 2.2,-0.4 3,-1.1 0.8,-0.6 1.5,-1.6 1.7,-2.7 0.1,-0.3 0.1,-0.5 0.1,-0.8 0,-0.1 0,-0.3 0,-0.4 v -0.3 -1.2 -2.3 c 0,-3.1 0,-6.2 0.1,-9.3 0.1,-6.3 0.1,-12.6 0.2,-19.2 0.1,-4 0.1,-8 0.2,-12 0,-1.3 -0.1,-2.4 -0.3,-3.3 0.4,0 0.3,-0.5 0.2,-0.9 z" class="st0"></path> <path style="fill:#551520" id="path6" d="m 133.4,127.1 c -0.1,-0.7 -0.2,-1.5 -0.6,-2.2 -0.3,-0.7 -0.8,-1.3 -1.2,-1.9 -0.9,-1 -2.5,-1.9 -4,-2.1 -0.8,-0.1 -1.4,-0.1 -2.1,0 -0.7,0.1 -1.5,0.4 -2.2,0.7 -0.7,0.4 -1.3,0.9 -1.8,1.5 -0.6,0.7 -0.6,0.9 -0.9,1.2 l -1.3,1.9 c -1.8,2.6 -3.6,5.1 -5.5,7.6 -0.5,0.6 -1,1.3 -1.5,1.9 -0.1,0.1 -0.1,0.1 -0.1,0.1 h -0.1 l -0.1,0.1 c -0.1,0 -0.1,0.1 -0.2,0.1 -0.3,0.1 -0.5,0.1 -0.6,-0.3 0,0 0,-0.1 0,-0.1 0,-0.3 0,-0.5 0,-0.6 0,0 0,0 0,0 v 0 l -0.3,-0.4 -0.7,-1.1 c -1.9,-2.9 -3.9,-5.6 -5.3,-7.5 -4.7,-4.6 -5.7,0 -5.7,0.4 l -0.6,-0.9 c -0.1,-0.2 -0.3,-0.4 -0.5,-0.6 0.2,0.2 0.4,0.3 0.6,0.5 v 0 c -0.2,-0.3 -0.4,-0.5 -0.7,-0.7 0,0 0,0 0,0.1 -0.6,-0.5 -1.3,-0.8 -2.2,-0.8 -1,0 -1.8,0.3 -2.5,1 -0.7,0.7 -1,1.5 -1,2.5 0,0.8 0.2,1.4 0.6,2 l 8.6,12.9 c 0.2,0.5 0.3,0.9 0.3,0.9 1,1.5 2,3 2.9,4.4 0.9,1.4 1.8,2.8 2.7,4.2 0,0.4 0,0.8 0,1.2 0.2,0.3 0.3,0.5 0.2,0.9 -0.1,0.3 -0.2,0.6 -0.3,0.9 0,0.5 0,1.1 0,1.6 0,0.2 0,0.4 0.1,0.6 0,-0.1 0,-0.2 -0.1,-0.3 0,1.3 -0.1,2.5 -0.1,3.7 0,0.3 0,0.6 0.1,0.8 0.1,0.9 0.2,1.8 -0.2,2.4 0,0.2 0,0.4 0,0.7 l 0.1,-0.1 c 0,0.1 -0.1,0.2 -0.1,0.3 0,0.9 -0.1,1.9 -0.1,2.8 -0.1,1.8 -0.1,3.7 -0.2,5.6 v 1.1 c 0,0.5 0.1,0.9 0.2,1.4 0.3,0.9 0.9,1.7 1.6,2.3 0.7,0.6 1.7,0.9 2.6,1 0.9,0.1 1.9,-0.2 2.7,-0.7 0.8,-0.5 1.4,-1.2 1.9,-2.1 0.2,-0.4 0.3,-0.9 0.4,-1.4 0.1,-0.5 0,-0.8 0,-1.2 0,-1.4 0,-2.8 0.1,-4.2 0,-2.8 0.1,-5.6 0.1,-8.5 0,-1.4 0.1,-2.9 0.1,-4.3 0,-0.7 0,-1.5 0,-2.2 0,-0.6 0,-1.1 0.1,-1.7 0.3,-0.4 0.6,-0.8 0.9,-1.2 4,-5.6 8,-10.9 12,-16.1 0.5,-0.6 1,-1.3 1.5,-1.9 l 0.7,-1 0.4,-0.5 0.2,-0.2 c 0.1,-0.1 0.1,-0.1 0.2,-0.3 0.5,-0.7 0.7,-1.5 0.9,-2.2 0,-0.7 0.1,-1.3 0,-2 z" class="st0"></path> </g> <g transform="translate(-28.1,-103.667)" id="g22"> <path style="fill:#551520" id="path10" d="m 157.8,174.3 c 0,0 0,0 0,0 0,0 0,0 0,0 -0.2,0 -0.3,-0.1 -0.4,-0.1 H 157 v 0 c -1.6,-1.1 -2.9,-0.5 -6,-1.1 0.9,0.2 0.4,0.3 -0.5,0.4 -0.2,0 -0.5,0 -0.8,0 -0.1,0 -0.3,0 -0.5,0 -0.1,0 -0.4,0 -0.4,0 -0.4,-0.1 -0.7,-0.2 -0.7,-0.4 v 0 c 0.1,-0.3 0.3,-0.5 0.3,-0.6 0,-0.1 0.1,-0.1 0.1,-0.1 0,0 0,0 0,0 v -0.1 -0.2 -0.3 c 0.1,-0.9 0.1,-1.9 0.1,-2.9 -0.1,-2 -0.2,-4 -0.1,-6 0.1,-1 0,-2 0,-3.1 0,-0.7 0.1,-1.5 0.1,-2.2 0,-0.4 0,-0.7 0,-1.1 v -0.3 -0.1 c 0,-0.1 0,-0.2 0,-0.3 0,-0.4 -0.1,-0.8 -0.3,-1.2 -0.2,-0.4 -0.4,-0.7 -0.7,-1 -0.3,-0.3 -0.6,-0.5 -1,-0.7 -0.4,-0.2 -0.8,-0.3 -1.2,-0.3 -0.4,0 -0.8,0 -1.2,0.2 -0.4,0.1 -0.8,0.3 -1.1,0.6 -0.3,0.3 -0.6,0.5 -0.8,0.9 -0.2,0.4 -0.4,0.8 -0.4,1.2 0,0.2 0,0.4 0,0.6 v 0.3 c 0.1,2.9 0.2,5.8 0.1,9 0,1.7 0.3,3.1 0.4,4.5 0.1,1 -0.1,2.1 -0.1,2.9 0,0.7 0,1.3 0.1,1.8 0,0.3 0.1,0.6 0.1,0.9 0,0.5 0.1,0.9 0.3,1.3 -0.2,-0.4 -0.2,-0.9 -0.2,-1.3 0,-0.3 0,-0.5 -0.1,-0.8 0,-0.5 -0.1,-1.1 -0.1,-1.8 0,-0.9 0.4,0.6 0.5,1.2 0.1,0.3 -0.3,0.6 -0.2,0.9 0,0.1 0,0.3 0,0.4 0,0.2 0,0.4 0.1,0.6 0.1,0.4 0.2,0.8 0.5,1.1 0.2,0.3 0,0.4 0.1,0.5 0.4,0.4 1,0.6 1.5,0.5 0.5,0 0.9,-0.1 1.1,-0.1 0.4,0.1 0.7,0.1 1.1,0.1 0.2,0 0.4,0 0.7,0 0.1,0 0.3,-0.1 0.4,-0.1 1.1,-0.2 2.3,-0.3 3.4,-0.5 v 0 c -0.7,0 -1.3,0 -2,-0.2 0.3,0.1 0.3,0.2 -0.1,0.2 l -0.3,-0.2 c 0.6,-0.1 1.2,-0.2 1.7,0 0,0 0.3,-0.1 0.4,-0.1 0.2,0 0.2,0.1 0.2,0.2 0.1,0 0.3,0 0.4,0 -0.2,-0.1 -0.5,-0.2 -0.8,-0.3 h 6.1 c 0.4,0 0.8,-0.1 1.1,-0.4 0.3,-0.3 0.4,-0.6 0.4,-1.1 0,-0.4 -0.1,-0.8 -0.4,-1.1 0,0 -0.2,-0.1 -0.5,-0.2 z m -13.3,2.7 c 0,0 0,0 0,0 0,0.1 0.1,0.1 0.1,0.2 0,-0.1 -0.1,-0.1 -0.1,-0.2 z" class="st0"></path> <path style="fill:#551520" id="path12" d="m 181.7,174.7 -0.1,-0.2 c -0.1,-0.3 -0.3,-0.5 -0.4,-0.8 0.1,0.3 0.3,0.6 0.4,0.8 0,0.1 0,0.1 0.1,0.2 0,0.2 0.1,0.3 0.1,0.4 0.1,0.2 0.1,0.5 0.1,0.7 0,0.5 -0.2,1.1 -0.5,1.6 -0.2,0.2 -0.4,0.4 -0.6,0.6 -0.2,0.2 -0.6,0.4 -0.9,0.5 -0.5,0.1 -0.6,0.1 -0.5,0 0,0 0.3,-0.1 0.6,-0.3 0.3,-0.2 0.6,-0.4 0.9,-0.7 0.2,-0.3 0.4,-0.6 0.5,-0.8 0.1,-0.4 0.5,-1.1 0.4,-1.5 0,-0.1 -0.1,-0.2 -0.1,-0.4 0,-0.1 0,-0.1 -0.1,-0.2 v -0.1 c -0.1,-0.1 -0.1,-0.3 -0.2,-0.4 -0.1,-0.2 -0.3,-0.5 -0.5,-0.8 -0.2,-0.2 0.1,-0.3 0.1,-0.4 -0.4,-0.8 -1,-1.2 -1.1,-1.8 -0.1,-0.4 -0.2,-0.8 -0.3,-1.1 -0.1,-0.2 -0.1,-0.4 -0.2,-0.7 -0.1,-0.1 -0.2,-0.3 -0.2,-0.4 -0.6,-1 -1.2,-2.1 -1.8,-3.2 v 0 c 0.3,0.6 0.5,1.3 0.6,2.1 -0.1,-0.3 0,-0.3 0.2,0 v 0.3 c -0.3,-0.6 -0.6,-1.1 -0.6,-1.7 0,0 -0.2,-0.2 -0.2,-0.3 0,-0.2 0.1,-0.2 0.1,-0.3 -0.1,-0.1 -0.1,-0.3 -0.2,-0.4 0,0.2 0,0.5 0.1,0.8 l -4,-10.4 c 0,0 0,0 0,0 0,0 0,-0.1 0,-0.1 l -0.1,-0.3 c -0.1,-0.2 -0.1,-0.3 -0.2,-0.4 0,0 0,0 0,0 0,-0.5 -0.5,-1 -1.1,-1.1 -0.3,-0.1 -0.6,-0.1 -0.9,0 -0.3,0.1 -0.7,0.3 -0.9,0.6 -0.1,0.1 -0.2,0.3 -0.3,0.4 -0.1,0.1 -0.2,0.4 -0.2,0.5 -0.1,0.3 -0.2,0.5 -0.4,0.8 -0.3,0.6 -0.6,1.3 -1.1,2 1.2,-2.1 0,1.9 -1.5,3.8 -2.3,2.6 -3.1,7.4 -4.9,11.1 -0.1,0.2 -0.2,0.5 -0.3,0.7 0,0.1 -0.1,0.2 -0.1,0.4 l -0.1,0.2 c 0,0.1 -0.1,0.2 -0.1,0.3 -0.1,0.3 -0.1,0.6 -0.2,0.9 0,0.3 0,0.6 0.1,0.9 0.1,0.6 0.5,1.3 1,1.7 0.3,0.3 0.8,0.6 1.2,0.8 0.5,0.2 0.9,0.2 1.4,0.2 0.5,0 1,-0.2 1.4,-0.4 0.2,-0.1 0.4,-0.3 0.6,-0.4 0.2,-0.1 0.3,-0.3 0.4,-0.5 0.1,-0.2 0.3,-0.4 0.4,-0.6 l 0.1,-0.3 0.2,-0.6 0.5,-1.2 0.9,-2.4 0.4,-1.1 v -0.1 c 0,0 0,0 0,0 0,0 0,0 0,0 h 0.4 c 0.6,0 1.2,0 1.8,0 0.8,0 1.6,0 2.5,0 l 0.1,0.2 c 0.6,1.7 1.5,3 2.2,4.3 0.1,0.2 0.2,0.5 0.3,0.8 l 0.1,0.2 c 0.1,0.2 0.1,0.3 0.2,0.4 0.1,0.2 0.3,0.4 0.4,0.6 0.3,0.4 0.8,0.7 1.3,0.8 0.5,0.1 0.9,0.1 1.3,0 0.7,-0.1 1.3,-0.6 1.6,-1 0.4,-0.5 0.6,-1.2 0.6,-1.7 0,-0.3 0,-0.5 -0.1,-0.8 -0.5,-0.5 -0.5,-0.6 -0.6,-0.7 z m -2,-1.8 c 0,0 0,0.2 0,0.3 v 0 c 0,-0.2 0,-0.3 0,-0.3 z m -10.6,-6.3 v 0 0 H 169 v -0.1 0 c 1.2,0 0.7,-0.5 1.7,-1.1 -0.3,0.2 -0.4,0 -0.4,-0.2 0,-0.2 0.2,-0.4 0.5,-0.2 0.5,0.3 0.5,0.5 0.5,0.4 0,-0.1 0,-0.5 0,-0.2 0,0.1 0,0 0,0 0,0.1 0,0.1 0,0.2 0,0.1 0,0.1 0,0.1 -0.1,0 -0.2,0.1 -0.3,0.2 0,0.1 -0.2,0.1 -0.3,0.2 -0.1,0.1 -0.2,0.1 -0.4,0.2 -0.1,0 -0.1,0 -0.2,0 0.1,0 0.2,0.1 0.3,0.1 0.1,0.1 0.3,-0.3 0.5,-0.4 0,0 0,0.3 0.1,0.2 0.1,-0.1 0.2,-0.2 0.2,-0.2 0,-0.1 0.2,0.3 0.2,0.2 0.1,-0.1 0.1,-0.5 0,-0.5 0,0 0,0 -0.1,0 0,0 0,0 0,0 0,0 0,0 0,-0.1 l -0.1,-0.3 c 0,-0.1 -0.1,-0.2 -0.1,-0.3 0.1,0.2 0.2,0.3 0.3,0.5 0.1,0.1 0.2,0.1 0.2,0.2 0,-0.1 0,-0.2 0,-0.3 0.1,0.1 0.1,0.1 0.2,0.2 v 0.1 c 0,0 0,0 0,0 -0.1,-0.1 -0.2,-0.2 -0.3,-0.3 0,0 0,0 0,0 0.1,0.1 0.5,0.3 0.7,0.5 0.1,0.1 -0.3,-0.1 -0.2,-0.1 0,0 0.1,0.1 0.2,0.2 0,0 0.1,0.1 0.1,0.1 0.1,0.1 -0.3,-0.2 -0.3,-0.2 0,0.1 0.4,0.5 0.2,0.4 -0.1,0 -0.2,-0.1 -0.3,-0.1 0,0 -0.1,0 -0.1,0 0,0 0,0.1 0,0.1 0,0.2 -0.2,0.3 -0.4,0.5 v 0 c 0.1,0 0.3,0 0.5,0.2 -0.1,-0.1 -0.1,-0.2 -0.1,-0.2 l 0.2,0.2 c -0.1,0.1 -0.2,0.2 -0.4,0 0,0 0,0.1 -0.1,0.1 -0.1,0 -0.1,-0.1 -0.1,-0.2 0,0 -0.1,0 -0.1,0 0.1,0.1 0.2,0.2 0.3,0.3 h -2.5 z m 2.7,-1.8 c 0,0 0,0 0,0 0,0 0,0 0,0 z" class="st0"></path> <path style="fill:#551520" id="path14" d="m 200.1,154.8 c 0,0 0,0 0,0 -0.1,-0.1 -0.1,-0.1 -0.2,-0.1 0,0 0,0 0,0 -0.1,0 -0.2,-0.1 -0.2,-0.1 0,0 0,0 0,0 0,0 0,0 -0.1,0 -0.1,0 -0.2,0 -0.3,0 h -0.5 c 0,0 0,0 0,0 -1.7,-1.1 -3,-0.5 -6.4,-1.1 1.9,0.4 -2.1,0.7 -4.2,-0.1 -0.8,-0.3 -1.7,-0.5 -2.7,-0.5 h -0.4 c -0.1,0 -0.4,0 -0.6,0 -0.5,0.1 -1.1,0.3 -1.5,0.7 -0.4,0.3 -0.8,0.7 -1,1.3 -0.2,0.6 -0.3,1.1 -0.2,1.6 0.1,0.5 0.3,1.2 0.6,1.6 0.3,0.4 0.8,0.8 1.3,1 0.3,0.1 0.6,0.2 0.8,0.2 0.1,0 0.3,0 0.4,0 h 0.2 0.8 c 0.5,0 1.1,0 1.6,0 0.3,0 0.5,0 0.8,0 h 0.4 c 0,0 0,0 0,0 0,0 0.1,0 0.1,0 0,0 0,0.1 0,0.2 v 0 0 0.1 0.3 0.6 c 0,0.4 0,0.8 0,1.2 0,0.8 0,1.5 0,2.3 0,1.5 0,3 0,4.6 0,1.5 0.1,3.1 0.1,4.6 0,0.8 0,1.6 0,2.4 v 0.3 c 0,0.2 0,0.4 0.1,0.6 0.1,0.4 0.3,0.9 0.5,1.2 0.3,0.4 0.5,0.6 0.9,0.9 0.4,0.3 0.8,0.4 1.3,0.5 0.5,0.1 0.9,0 1.3,-0.1 0.5,-0.1 0.9,-0.4 1.2,-0.7 0.3,-0.3 0.6,-0.6 0.8,-1 0.2,-0.4 0.3,-0.8 0.3,-1.2 0,-0.1 0,-0.2 0,-0.3 v -0.1 -0.3 c 0,-0.2 0,-0.4 -0.1,-0.6 0,-0.4 -0.1,-0.7 -0.1,-1.1 -0.1,-1.1 0.1,-2.2 0.1,-3.1 0,-1.4 -0.1,-2.5 -0.2,-3.7 0.1,1.3 0.1,2.2 0.2,3.6 0,0.9 -0.4,-0.7 -0.5,-1.3 -0.1,-0.3 0.3,-0.7 0.2,-0.9 0,-0.6 -0.1,-1.1 -0.2,-1.7 -0.1,-0.3 0.2,-0.2 0.2,-0.4 -0.1,-0.8 -0.5,-1.5 -0.4,-2 0.1,-0.4 0.1,-0.8 0.1,-1.1 0,-0.2 0,-0.5 0,-0.7 0,-0.1 -0.1,-0.3 -0.1,-0.5 -0.1,-0.6 -0.2,-1.2 -0.3,-1.8 -0.1,-0.5 -0.1,-1.1 -0.2,-1.6 v 0 c 0,0.3 0,0.6 0,0.9 0,0.3 -0.1,0.7 -0.2,1 0.1,-0.3 0.2,-0.3 0.2,0.1 l -0.2,0.3 c -0.1,-0.6 -0.2,-1.3 0,-1.8 0,0 -0.1,-0.3 -0.1,-0.4 0,-0.2 0.1,-0.1 0.2,-0.1 0,-0.1 0,-0.2 0,-0.4 -0.1,0.1 -0.2,0.3 -0.2,0.5 0,0 0,0 0,0.1 v -1.1 h 5.6 c 0.4,0 0.8,-0.1 1.1,-0.4 0.3,-0.3 0.4,-0.6 0.4,-1.1 0,-0.4 -0.1,-0.8 -0.4,-1.1 -0.2,-0.1 -0.3,-0.1 -0.3,-0.2 z m -6.4,10.8 c 0,0 -0.1,0.1 -0.1,0.2 v 0 c 0,-0.1 0,-0.2 0.1,-0.2 z" class="st0"></path> <path style="fill:#551520" id="path16" d="m 208.6,170.7 c -0.1,-0.7 0.1,-1.4 0.1,-2 0,-0.9 -0.1,-1.6 -0.2,-2.4 0.1,0.8 0.1,1.4 0.2,2.3 0,0.6 -0.4,-0.4 -0.5,-0.8 -0.1,-0.2 0.3,-0.4 0.2,-0.6 0,-0.4 -0.1,-0.7 -0.2,-1.1 -0.1,-0.2 0.2,-0.2 0.2,-0.2 -0.1,-0.5 -0.5,-1 -0.4,-1.3 0,-0.3 0.1,-0.5 0.1,-0.7 0,-0.1 0,-0.3 0,-0.4 0,-0.1 -0.1,-0.2 -0.1,-0.3 -0.2,-0.7 -0.3,-1.5 -0.5,-2.3 v 0 c 0,0.4 0,0.9 -0.2,1.4 0.1,-0.2 0.2,-0.2 0.2,0.1 l -0.2,0.2 c -0.1,-0.4 -0.2,-0.8 0,-1.2 0,0 -0.1,-0.2 -0.1,-0.3 0,-0.1 0.1,-0.1 0.2,-0.1 0,-0.1 0,-0.2 0,-0.3 -0.1,0.1 -0.2,0.3 -0.3,0.5 v -5 c 0,-0.4 -0.1,-0.8 -0.4,-1.1 -0.2,-0.2 -0.5,-0.4 -0.8,-0.4 v 0 c 0,0 0,0 -0.1,0 -0.1,0 -0.1,0 -0.2,0 -0.1,0 -0.2,0 -0.3,0 0,0 0,0 0,0 -0.3,-0.2 -0.8,-0.2 -1.1,0 -0.3,0.2 -0.6,0.5 -0.8,1 0,0.1 -0.1,0.2 -0.1,0.4 v 0.2 0.1 c 0,0.2 0,0.4 -0.1,0.6 -0.1,0.4 -0.1,0.9 -0.3,1.5 0.4,-1.5 0.7,1.1 0,2.6 -1.2,2.1 -0.2,5.1 -0.5,7.7 -0.1,0.6 0,1.3 0,2.1 -0.1,1 -0.1,2 -0.2,3 0,0.5 0,1 0,1.5 v 0.7 c 0,0.5 0.1,1.1 0.4,1.6 0.1,0.3 0.3,0.5 0.5,0.7 0.2,0.2 0.4,0.4 0.6,0.5 0.5,0.3 1.1,0.5 1.6,0.6 0.5,0 1,0 1.6,-0.2 0.5,-0.2 1,-0.6 1.3,-1 0.3,-0.4 0.6,-1 0.7,-1.5 0,-0.1 0,-0.3 0,-0.4 v -0.2 -0.1 -0.4 c 0,-0.5 0,-1 0,-1.6 0.1,-1.5 -0.2,-2.5 -0.3,-3.4 z m -1.3,-5.2 c 0,0 -0.1,0.1 -0.1,0.1 v 0 c 0.1,0 0.1,-0.1 0.1,-0.1 z" class="st0"></path> <path style="fill:#551520" id="path18" d="m 232.2,173.6 c -0.4,-0.5 -1,-0.9 -1.7,-1 -0.2,0 -0.3,-0.1 -0.5,-0.1 -0.1,0 -0.2,0 -0.2,0 h -0.2 -0.5 c -0.6,0 -1.2,0 -1.8,0 -1.2,0 -2.4,0 -3.7,0 -1.2,0 -2.4,0 -3.7,0 -0.1,0 -0.1,0 -0.2,0 0,-0.2 -0.1,0.2 -0.2,-1.1 0,-0.5 -0.1,-0.9 -0.1,-1.4 0,-0.2 0,-0.4 -0.1,-0.7 v -0.2 c 0,-0.1 0,-0.3 0,-0.4 0.2,0 0.4,0 0.6,0.1 v 0 h 0.1 0.2 c 0.1,0 0.3,0 0.4,0 0.3,0 0.5,0 0.8,0 1.1,0 2.1,0 3,-0.1 0.5,0 0.9,-0.1 1.4,-0.1 h 0.3 c 0.1,0 0.3,0 0.5,0 0.4,-0.1 0.8,-0.2 1.1,-0.5 -0.4,0.3 -0.8,0.4 -1.2,0.4 -0.1,0 -0.2,0 -0.3,0 h -0.2 -0.3 c -0.4,0 -0.9,0 -1.3,0.1 -0.9,0 -1.8,0.1 -2.9,0.1 -1.5,0 1,-0.4 2,-0.5 0.4,-0.1 1.1,0.3 1.5,0.2 0.5,0 0.8,0 1.4,-0.1 0.3,0 0.7,-0.2 1,-0.4 0.3,-0.2 0.6,-0.5 0.8,-0.8 0.2,-0.3 0.3,-0.4 0.4,-0.5 0.1,-0.1 0.2,-0.1 0.2,-0.3 0.1,-0.6 0,-1.1 -0.2,-1.5 -0.2,-0.5 -0.6,-0.7 -0.9,-1 -0.4,-0.2 -0.7,-0.3 -1.1,-0.3 -0.4,0 -0.5,0 -0.8,0 -0.6,-0.1 -1.2,-0.1 -1.8,-0.1 -0.4,0 -0.7,0 -1.1,0 -0.2,0 -0.5,0.1 -0.7,0.1 -1.2,0.1 -2.6,0.3 -3.9,0.4 0,-0.3 -0.1,-0.7 -0.1,-1 v 0 c 0,0.4 0,0.7 0,1.1 0.6,0 1.1,0.1 1.8,0.2 -0.2,0 -0.3,-0.1 -0.3,-0.1 0,0 0.1,-0.1 0.4,-0.1 0.1,0.1 0.3,0.1 0.4,0.2 -0.4,0 -0.9,0.1 -1.3,0.1 -0.4,0 -0.9,0 -1.2,-0.1 0,-0.1 0,-0.2 0.1,-0.3 0,0 -0.1,-0.3 -0.1,-0.5 0,-0.3 0.1,-0.3 0.2,-0.4 0,-0.2 0,-0.4 0,-0.5 -0.1,0.2 -0.2,0.6 -0.2,1.1 0,0.1 0,0.1 0,0.2 v -6.2 h 11 c 0,0 0,0 0,0 0,0 0.1,0 0.1,0 h 0.5 c 0.3,0 0.5,-0.1 0.7,-0.2 0,0 0,0 0,0 0.4,0 0.7,-0.2 1,-0.6 0.2,-0.3 0.4,-0.8 0.3,-1.2 0,-0.5 -0.3,-0.9 -0.7,-1.2 -0.2,-0.2 -0.4,-0.3 -0.7,-0.4 -0.1,0 -0.3,-0.1 -0.4,-0.1 -0.1,0 -0.3,0 -0.4,0 -1.5,-0.1 -3.3,-0.1 -5.8,-0.4 2.9,0.4 -3.2,0.7 -6.6,-0.1 -0.1,0 -0.5,-0.1 -0.7,-0.1 -0.3,0 -0.6,0 -0.8,0.1 -0.5,0.1 -1.1,0.4 -1.5,0.9 -0.4,0.4 -0.7,1 -0.7,1.7 0,0.5 -0.1,0.9 -0.1,1.4 -0.1,1.5 -0.1,3.1 -0.1,4.7 0.1,3.2 0.2,6.6 0.1,9.8 0,0.8 0,1.6 0,2.4 0,0.5 0,0.9 0,1.4 0,0.9 0.2,1.7 0.8,2.4 0.4,0.4 0.8,0.8 1.3,1 0.3,0.1 0.5,0.2 0.8,0.2 0.1,0 0.3,0 0.4,0 h 0.4 c 0.6,0 1.2,0 1.8,0 1.2,0 2.4,0 3.6,0 2.4,0 4.7,0 7.1,0 0.1,0 0.5,0 0.8,-0.1 0.3,-0.1 0.7,-0.2 1,-0.4 0.6,-0.4 1,-0.8 1.4,-1.4 0.3,-0.6 0.4,-1.3 0.4,-1.9 -0.1,-0.8 -0.4,-1.5 -0.8,-1.9 z m -4.4,-7.9 c 0,0 0,0 0,0 0,-0.1 0,-0.3 0,-0.4 0,0.1 0.1,0.3 0,0.4 z" class="st0"></path> <path style="fill:#551520" id="path20" d="m 254.4,175.7 c 0,0 0,0 0,0 0,-0.1 0,-0.1 0,-0.1 0,-0.1 0,-0.2 0,-0.3 0,0 0,0 0,0 0,0 0,0 0,-0.1 0,-0.1 -0.1,-0.2 -0.2,-0.4 l -0.3,-0.5 c 0,0 0,0 0,0 0,-1.1 -0.4,-1.9 -0.9,-2.9 -0.3,-0.5 -0.6,-1 -0.9,-1.7 -0.2,-0.3 -0.3,-0.7 -0.5,-1 l -0.1,-0.1 c 0,0 0,-0.1 0,-0.1 0,0 0,-0.1 0,-0.2 0,-0.1 0,-0.2 0,-0.3 0,0.3 0,0.4 -0.1,0.3 -0.1,0 -0.2,-0.1 -0.3,-0.2 -0.1,-0.1 -0.1,-0.1 -0.2,-0.2 0,0 -0.1,-0.1 -0.1,-0.1 0,0 -0.1,-0.1 0,-0.1 0.2,-0.1 0.3,-0.2 0.5,-0.3 0.2,-0.1 0.3,-0.2 0.6,-0.4 0.6,-0.5 1.1,-1 1.6,-1.5 1.6,-1.6 2.3,-4.7 1.1,-7.4 -0.6,-1.3 -1.5,-2.5 -2.7,-3.4 -1.2,-0.9 -2.5,-1.5 -3.9,-1.9 -0.3,-0.1 -0.7,-0.1 -1.1,-0.2 -0.2,0 -0.4,0 -0.5,0 -0.1,0 -0.3,0 -0.5,0 -0.6,0 -1.2,0 -1.9,0 -0.9,0 -1.7,-0.1 -2.6,-0.1 h -0.6 c -0.2,0 -0.4,0 -0.6,0.1 -0.4,0.1 -0.8,0.2 -1.1,0.4 -0.7,0.4 -1.2,1.1 -1.5,1.9 -0.1,0.4 -0.2,0.8 -0.1,1.2 v 0.8 1.3 c 0,0.8 0,1.7 0,2.6 0.1,3.4 0.2,6.9 0.1,10.5 0,1 0.1,1.9 0.2,2.8 0,0.4 0.1,0.9 0.1,1.3 v 0.3 c 0,0.2 0,0.4 0.1,0.6 0.1,0.4 0.3,0.8 0.5,1.1 0.2,0.2 0.4,0.4 0.6,0.6 0.2,0.2 0.5,0.3 0.8,0.4 0.6,0.2 1.1,0.2 1.7,0.1 1.2,-0.3 2,-1.1 2.2,-2.1 0.1,-0.4 0.1,-0.8 0.1,-0.9 0,-0.2 0,-0.4 0,-0.5 0,-0.4 0,-0.7 -0.1,-1 0,-0.7 -0.1,-1.3 -0.2,-2 0,0.7 0.1,1.3 0.1,1.9 0,0.3 0,0.6 0,1 0,0.2 0,0.3 0,0.5 0,0.1 0,0.2 0,0.3 0,0.2 0,0.3 0,0.5 -0.1,0.5 -0.2,0.6 -0.2,0.6 0,-0.1 0.1,-0.4 0,-0.7 0,-0.4 -0.1,-0.6 -0.1,-0.9 -0.1,-0.2 -0.1,-0.5 -0.1,-0.7 -0.1,-0.3 0.3,-0.8 0.2,-1.1 0,-0.6 -0.1,-1.2 -0.2,-1.9 -0.1,-0.3 0.2,-0.3 0.2,-0.4 0,-0.2 -0.1,-0.5 -0.1,-0.7 0,-0.1 0,-0.1 -0.1,-0.2 0,-0.1 -0.1,-0.1 -0.1,-0.2 -0.1,-0.2 -0.2,-0.5 -0.1,-0.7 0,-0.1 0,-0.2 0,-0.2 0.2,0 0.4,0.1 0.6,0.1 0.2,0 0.3,0 0.4,0 0.1,0 0.2,-0.1 0.4,-0.1 0.3,0 0.7,-0.1 1,-0.1 0.2,0 0.5,-0.1 0.8,-0.1 l 0.5,0.5 c 0.2,0.2 0.4,0.5 0.6,0.7 v 0 c -0.2,-0.3 -0.4,-0.5 -0.5,-0.8 -0.1,-0.2 -0.3,-0.5 -0.4,-0.8 -0.1,0 -0.3,-0.1 -0.4,-0.1 0.3,0.1 0.2,0.2 -0.1,0.2 -0.1,-0.1 -0.2,-0.1 -0.2,-0.2 0.3,0 0.6,-0.1 0.9,-0.1 0.2,0.3 0.4,0.7 0.5,1.1 0,0 0.2,0.2 0.3,0.3 0.1,0.2 0,0.3 -0.1,0.3 0.1,0.1 0.2,0.3 0.3,0.4 0,-0.2 -0.1,-0.5 -0.2,-0.8 0,0 0,-0.1 0,-0.1 l 4.2,6.8 c 0.3,0.5 0.8,0.7 1.3,0.7 0.2,0 0.4,0 0.6,-0.1 0.2,-0.1 0.3,-0.2 0.5,-0.3 0.1,-0.1 0.2,-0.3 0.3,-0.5 0.1,-0.1 0.1,-0.3 0.1,-0.4 0,0 0,0 0,0 -0.1,0.2 -0.1,0.1 -0.1,0 z m -6.5,-10.5 c -0.1,0 -0.1,0 -0.2,0.1 -0.5,-0.4 -0.7,-0.5 -1,-0.5 -0.3,0 -0.7,-0.1 -1.4,-0.4 0.4,0.2 0.3,0.4 -0.1,0.4 -0.4,0 -1.1,-0.1 -1.1,-0.5 -0.1,-0.4 0.1,-0.6 0,-0.6 0,-0.1 0,0 -0.1,-0.1 0,0 0,0 0,0 0,0 0,-0.1 0,-0.1 v -0.2 c 0,-0.3 0,-0.5 0.1,-0.7 0.1,-0.4 0,-0.8 0,-1.2 0.1,-0.3 0.1,-0.6 0.1,-0.9 0,-0.2 0,-0.3 0,-0.5 v -0.2 -0.1 c 0,0 0,0 0,0 0,0 0,0 -0.1,-0.1 0,0 0,-0.1 0,-0.1 0,0 0,0 0.1,0 h 0.4 c 0.3,0 0.6,0 0.8,0 0.2,0 0.3,0 0.5,0 0.2,0 0.3,-0.1 0.4,-0.1 0.2,-0.1 0.4,-0.2 0.6,-0.2 0.3,0 0.5,0.3 0.6,0.4 0.3,0.2 0.6,0.3 0.8,0.4 -0.3,-0.2 -0.5,-0.3 -0.8,-0.5 -0.2,-0.1 0.3,-0.3 0.6,-0.2 0.1,0 0,0.3 0.1,0.3 0.1,0.1 0.3,0.1 0.5,0.2 0.1,0 -0.2,0.2 -0.1,0.2 0.2,0.1 0.6,0.1 0.6,0.3 0,0.1 0,0.3 0,0.4 0,0.1 0,0.1 0,0.2 l 0.1,0.1 c 0.2,0.3 0.4,0.7 0.5,1.1 v 0 c 0,-0.2 0,-0.5 0.2,-0.7 -0.1,0.1 -0.1,0.1 -0.2,0 l 0.1,-0.1 c 0.1,0.2 0.2,0.5 0,0.7 0,0 0.1,0.1 0.1,0.2 -0.1,0.1 -0.1,0.1 -0.2,0.1 0,0 0,0.1 0,0.1 0.1,0 0.2,-0.2 0.3,-0.3 0,0.4 -0.1,0.8 -0.3,1.2 -0.2,0.5 -0.5,0.9 -0.8,1.3 -0.2,0.1 -0.6,0.3 -1.1,0.6 z m -5.5,5.6 v 0 c 0,-0.1 0.1,-0.2 0.1,-0.3 0,0.1 -0.1,0.2 -0.1,0.3 z" class="st0"></path> </g> <path style="fill:#fbb040" id="path24" d="m 180.8,3.8330025 c -2.6,-3.19999998 -6,-2.7 -7.6,-2.2 -3.4,-2.8 -7.7,-1.29999998 -9.3,-0.6 -4.9,-1.89999998 -8.6,1 -9.8,2.1 -1.2,0.1 -2.2,0.4 -3.1,0.9 -0.7,0.4 -1.2,0.8 -1.6,1.3 -0.2,0.3 -0.4,0.6 -0.6,1.1 l -0.1,0.4 c 0,0 0,0.1 0,0.1 l -0.1,0.5 c 0,0.2 -0.1,0.3 -0.1,0.5 v 0.3 c 0,0.1 0,0.3 0,0.4 v 0.3 c 0,0.2 0,0.5 0.1,0.8 0.1,0.8000005 0.4,1.6000005 0.7,2.1000005 0.8,1.4 2,2.5 3.5,3 0.7,0.2 1.4,0.3 2.2,0.3 1.1,2.4 0.7,7.7 0.7,7.8 0,0.2 0.1,0.4 0.3,0.5 0.2,0.1 2.4,1.7 6.1,2.4 0.4,-0.8 0.9,-1.5 1.5,-2.1 -2,-0.3 -3.7,-0.9 -4.8,-1.3 1.3,-0.4 3.4,-0.8 6.8,-1.1 4.4,-0.4 7.6,0.4 9.6,1.1 -0.6,0.3 -1.5,0.6 -2.6,0.9 0.6,0.5 1.1,1 1.5,1.6 1.2,-0.4 2.4,-0.9 3.7,-1.5 0.2,-0.1 0.3,-0.3 0.3,-0.5 0,0 0,0 0,-0.1 -0.3,-3.3 0.6,-6.6 2,-8 1.9,-2 4.1,-6.9000005 0.7,-11.0000005 z m -3.2,10.3000005 c -1.8,2.5 -2.2,4.9 -2.3,6.2 -2.8,-1.1 -5.7,-1.4 -8.3,-1.4 -4.1,0 -7.5,0.9 -9,1.4 0,-2.1 -0.5,-4.1 -0.9,-5.4 0.1,0 0.1,0 0.2,0 l 1.8,-0.6 c 0.2,-0.1 0.5,-0.2 0.7,-0.2 l 0.3,-0.1 c 0.2,0 0.3,-0.1 0.5,-0.1 1.1,-0.2 2.2,-0.4 3.2,-0.5 1,-0.1 2,-0.2 2.9,-0.2 0.9,0 1.8,-0.1 2.5,-0.1 0.8,0 1.4,0 2,0 1.1,0 1.7,0.1 1.7,0.1 0.3,0 0.6,-0.2 0.6,-0.5 0.1,-0.3 -0.1,-0.6 -0.4,-0.7 0,0 -0.1,0 -0.2,-0.1 0.4,-0.8 0.4,-1.6 0.4,-1.6 0,-0.3 -0.2,-0.5000005 -0.5,-0.6000005 -0.3,0 -0.6,0.1 -0.6,0.4000005 -0.2,0.6 -0.7,1.1 -1.1,1.3 -0.5,-0.1 -1,-0.2 -1.6,-0.3 0,0 -0.1,0 -0.1,0 0.4,-1.1 -0.2,-2.2000005 -0.2,-2.2000005 -0.1,-0.3 -0.5,-0.4 -0.7,-0.3 -0.3,0.1 -0.4,0.4 -0.4,0.7 0.1,0.7000005 -0.2,1.2000005 -0.6,1.6000005 -0.2,0 -0.4,0 -0.6,0 -0.3,0 -0.6,0 -1,-0.1 h -0.5 c 0,0 -0.1,0 -0.1,0 -0.5,0 -1,0 -1.5,0 h -0.2 c -0.9,-0.9000005 -1.3,-2.4000005 -1.3,-2.4000005 -0.1,-0.3 -0.3,-0.5 -0.6,-0.4 -0.3,0 -0.5,0.3 -0.5,0.5 -0.1,1 0,1.8000005 0.2,2.5000005 -0.4,0 -0.7,0.1 -1,0.2 -0.2,0 -0.4,0.1 -0.6,0.1 l -0.3,0.1 c -0.3,0.1 -0.6,0.1 -0.8,0.2 -0.5,-0.3 -0.9,-0.8 -1,-1.7000005 0,-0.3 -0.2,-0.5 -0.5,-0.5 -0.3,0 -0.5,0.1 -0.6,0.4 0,0.1 -0.5,1.3000005 0.1,2.5000005 -0.9,0.2 -1.9,0.2 -2.6,-0.1 -0.8,-0.3 -1.5,-0.9 -2,-1.6 -0.5,-0.9000005 -0.6,-1.8000005 -0.5,-2.5000005 l 0.1,-0.4 0.1,-0.3 c 0.1,-0.1 0.1,-0.3 0.2,-0.4 0.2,-0.3 0.5,-0.5 0.8,-0.8 0.8,-0.5 1.7,-0.8 2.3,-0.8 0.7,-0.1 1.5,-0.1 2.2,0 0.8,0.2 1.3,0.4 1.6,0.6 0.4,0.2 0.7,0.5 0.9,0.6 l 0.3,0.3 c 0.2,0.2 0.6,0.2 0.8,0 0.2,-0.2 0.3,-0.5 0.1,-0.8 l -0.3,-0.4 c -0.2,-0.2 -0.5,-0.6 -1,-1 -0.5,-0.4 -1.1,-0.7 -1.8,-1 4.7,-2.5 9.6,0.9 9.9,1 0.3,0.2 0.6,0.1 0.8,-0.1 0.2,-0.2 0.2,-0.6 -0.1,-0.8 -0.5,-0.5 -1,-0.9 -1.5,-1.2 5.3,-1.69999998 7.9,2.9 8.1,3.2 0.2,0.3 0.5,0.4 0.8,0.2 0.3,-0.1 0.4,-0.5 0.3,-0.8 -0.3,-0.7 -0.7,-1.4 -1.1,-2 2.6,-0.4 4.3,0.7 5.4,3.6 0.5,2.3 -0.5,4.0000005 -2.9,7.3000005 z m -19.4,-2.1 v 0 z" class="st1"></path> <g transform="translate(-28.1,-103.667)" id="g36"> <path style="fill:#551520" id="path26" d="m 160.7,138.7 c -0.2,-0.2 -0.5,-0.4 -0.8,-0.6 -0.3,-0.1 -0.7,-0.3 -1,-0.3 -0.4,0 -0.6,0 -1,0.1 -0.3,0.1 -0.6,0.2 -0.9,0.4 l -0.1,0.1 c -0.5,0.3 -0.9,0.6 -1.3,0.8 -1.3,0.6 -2.6,0.9 -3.8,0.9 0.7,0 1.3,0 1.9,-0.1 0.6,-0.1 1.2,-0.3 1.9,-0.7 0.4,-0.2 0.3,-0.1 0,0.2 -0.3,0.3 -0.9,0.6 -1.2,0.7 -0.3,0.1 -0.8,-0.1 -1.1,0 -0.6,0.1 -1.3,0.2 -2,0.2 -0.3,0 -0.2,-0.3 -0.4,-0.3 -0.9,-0.1 -1.8,-0.1 -2.3,-0.5 -0.4,-0.3 -0.7,-0.6 -1,-0.9 -0.2,-0.2 -0.4,-0.4 -0.6,-0.6 -0.1,-0.1 -0.3,-0.2 -0.4,-0.4 -1,-0.9 -1.8,-2.3 -2.1,-3.7 v 0 c 0.1,0.9 0.3,1.7 0.6,2.6 -0.1,-0.4 0,-0.4 0.2,0 0,0.1 0,0.3 0,0.4 -0.5,-0.6 -0.8,-1.4 -0.8,-2.2 0,0 -0.1,-0.3 -0.2,-0.5 0,-0.3 0.1,-0.3 0.2,-0.3 0,-0.2 -0.1,-0.3 -0.1,-0.5 -0.1,0.2 -0.1,0.6 -0.1,0.9 0,0 0,0.1 0,0.1 -0.1,-0.5 -0.1,-1 -0.1,-1.6 0,-2.3 0.8,-4.3 2.4,-5.9 1.5,-1.5 3.3,-2.3 5.4,-2.4 0,0 0,0 0,0 0,0 0,0 0,0 0.2,0 0.3,0 0.5,0 0.2,0 0.4,0 0.6,0 1.1,0.6 1.9,1 2.9,1.6 0.2,0.1 0.5,0.3 0.8,0.5 0.1,0.1 0.3,0.2 0.4,0.3 0.2,0.2 0.4,0.4 0.7,0.5 0.6,0.3 1.4,0.3 2.1,-0.1 0.4,-0.2 0.7,-0.5 0.9,-0.9 0.1,-0.2 0.2,-0.5 0.3,-0.7 0,0.1 -0.1,0.2 -0.1,0.3 -0.1,0.2 -0.2,0.4 -0.3,0.4 -0.2,0.2 -0.2,0.1 -0.1,-0.1 0.1,-0.2 0.2,-0.6 0.2,-1.1 0,-0.2 0,-0.5 -0.1,-0.8 -0.1,-0.3 -0.3,-0.6 -0.5,-0.9 v 0 0 c -1,-0.9 -2.4,-1.8 -3.6,-2.6 -1,-0.7 -2.3,-1.1 -3.7,-1.2 -1.4,-0.1 -2.9,0 -4.4,0.5 -1.5,0.5 -2.9,1.3 -4.1,2.3 -1.2,1 -2.2,2.1 -3.1,3.3 -0.9,1.2 -1.5,2.8 -1.8,4.5 -0.2,1.1 -0.3,2.3 -0.3,3.4 0,1.1 0.3,2.3 0.6,3.4 0.8,2.2 2.2,4.1 3.9,5.6 1.7,1.5 3.9,2.6 6.2,2.9 1.2,0.2 2.3,0.2 3.5,0.2 1.2,-0.1 2.4,-0.3 3.5,-0.8 1.5,-0.5 2.6,-1.4 3.6,-2.3 l 0.1,-0.1 c 0.2,-0.3 0.4,-0.6 0.6,-1 0.2,-0.4 0.2,-0.8 0.2,-1.2 0,-0.4 -0.1,-0.8 -0.3,-1.1 0,-0.2 -0.3,-0.5 -0.5,-0.7 z" class="st0"></path> <path style="fill:#551520" id="path28" d="m 181.7,142.6 v -0.3 c -0.2,-1.6 -0.3,-3.5 -0.5,-5.3 v 0 c 0,1 0,2 -0.2,3.1 0.1,-0.5 0.2,-0.4 0.2,0.1 -0.1,0.1 -0.1,0.3 -0.2,0.4 -0.1,-0.9 -0.2,-1.8 0,-2.7 0,0 -0.1,-0.4 -0.1,-0.6 0,-0.3 0.1,-0.3 0.2,-0.3 0,-0.2 0,-0.4 0,-0.6 -0.1,0.2 -0.2,0.8 -0.3,1.2 V 123 c 0,-0.4 -0.1,-0.8 -0.4,-1.1 -0.1,-0.1 -0.3,-0.2 -0.5,-0.3 0,0 0,0 0,0 0,0 -0.1,0 -0.1,0 -0.2,-0.1 -0.3,-0.1 -0.5,-0.1 -0.2,0 -0.5,0.1 -0.7,0.2 0,0 0,0 0,0 -0.3,0 -0.7,0.2 -1,0.5 -0.1,0.1 -0.2,0.3 -0.3,0.5 0,0.1 -0.1,0.2 -0.1,0.3 v 0.2 c -0.1,0.6 -0.2,1.3 -0.2,2 0,0.7 -0.1,1.5 -0.1,2.5 0,0.5 -0.1,1 -0.1,1.5 0,0.2 0,0.2 0,0.3 0,0.1 0,0.1 0,0.2 0,0.1 -0.1,0.2 -0.1,0.3 0.1,-0.3 0.2,-0.4 0.3,-0.3 0.1,0.1 0.1,0.4 0.1,0.9 -0.2,0 -0.5,0 -0.8,0 -0.4,0 -0.8,0 -1.2,-0.1 -1,-0.1 -2,-0.2 -2.9,-0.4 -0.7,-0.2 -1.4,-0.3 -2.2,-0.4 h -0.3 c 0,0 -0.1,0 -0.1,0 v 0 l -0.1,-0.1 -0.1,-0.1 c 0,-0.1 0,-0.1 0,-0.2 v 0 -0.4 c 0,-0.3 0,-0.5 0,-0.8 0,-1.1 0,-2.2 -0.1,-3.3 v -1.7 -0.2 c 0,-0.1 0,-0.3 0,-0.4 0,-0.3 -0.1,-0.6 -0.2,-0.9 -0.1,-0.3 -0.3,-0.5 -0.5,-0.8 -0.2,-0.2 -0.4,-0.4 -0.6,-0.6 -0.5,-0.3 -1.1,-0.5 -1.7,-0.6 -0.5,0 -1.1,0.1 -1.7,0.4 -0.5,0.3 -0.9,0.6 -1.2,1.1 -0.3,0.5 -0.5,1.1 -0.5,1.6 -0.1,1.5 0,3.1 0,4.9 -0.2,4.6 -0.2,9 -0.1,13.5 v 0.8 0.4 0.3 c 0,0.1 0,0.3 0.1,0.5 0.1,0.6 0.5,1.3 0.9,1.7 0.4,0.4 1,0.8 1.6,0.9 0.6,0.1 1.2,0.1 1.8,-0.1 0.6,-0.2 1.2,-0.6 1.5,-1.1 0.4,-0.5 0.7,-1.1 0.7,-1.8 0,-0.1 0,-0.3 0,-0.4 v -0.2 -0.4 c 0,-1.2 0,-2.3 0,-3.5 0,-0.6 0,-1.2 0,-1.8 v -0.4 0 -0.1 c 0,0 0,0 0,-0.1 0,0 0.1,0 0.1,-0.1 -0.1,0 0.4,0 0.6,-0.1 0.3,0 0.5,0 0.8,-0.1 1.1,-0.1 2.1,-0.2 3.1,-0.3 0.3,0 0.6,0 1,0 h 0.5 0.2 0.1 v 0 c 0.2,0 0.3,0 0.5,0.1 0,0.1 0,0.2 0,0.2 0,0.7 0,1.3 0.1,2 0,0.9 0.1,1.7 0.2,2.6 0,-0.9 -0.1,-1.7 -0.1,-2.6 0,-0.4 0,-0.8 0,-1.3 0,-0.1 0,-0.2 0,-0.3 0,-0.1 0,-0.1 0,-0.1 0,-0.1 0,-0.1 0,-0.2 0,-0.2 0.1,-0.2 0.2,-0.1 0.1,0.1 0.1,0.2 0.2,0.4 0.1,0.3 0.1,0.6 0.1,0.8 0.1,0.4 -0.3,1 -0.2,1.4 0,0.8 0.1,1.6 0.2,2.5 0.1,0.4 -0.2,0.3 -0.2,0.5 0,0.3 0.1,0.6 0.1,0.9 v 0.2 c 0,0.1 0,0.2 0.1,0.3 0,0.2 0.1,0.4 0.2,0.6 0.2,0.4 0.5,0.6 0.7,0.8 0.3,0.2 0.5,0.3 0.8,0.5 0.4,0.2 0.8,0.2 1.3,0.1 0.4,-0.1 0.8,-0.3 1.1,-0.6 0.4,-0.3 0.7,-0.9 0.7,-1.4 0,-0.1 0,-0.2 0,-0.2 z m -3.8,-0.4 v 0 c 0,0.1 0,0.2 -0.1,0.2 0,-0.1 0,-0.2 0.1,-0.2 z" class="st0"></path> <path style="fill:#551520" id="path30" d="m 206.6,136.3 c 0.1,-0.3 0.2,-0.2 0.1,0.1 l -0.2,0.2 c 0.1,-0.6 0.2,-1.2 0.5,-1.7 0,0 0,-0.3 0,-0.4 0.1,-0.2 0.2,-0.2 0.2,-0.2 0,-0.1 0,-0.3 0,-0.4 -0.1,0.1 -0.2,0.4 -0.3,0.6 0,0 0,0.1 0,0.1 0.1,-0.6 0.2,-1.2 0.2,-1.9 0,-1.6 -0.3,-3 -0.8,-4.4 -0.4,-1.1 -1.1,-2.1 -1.9,-3 0,0 -0.1,-0.1 -0.1,-0.1 -0.1,-0.1 -0.2,-0.2 -0.2,-0.3 0,0 0,0 0,0 0,0 -0.1,-0.1 -0.1,-0.1 -0.1,-0.1 -0.1,-0.1 -0.2,-0.2 -0.1,-0.1 -0.2,-0.2 -0.3,-0.3 0,0 0,0 0,0 -0.2,-1 -0.8,-1.6 -1.6,-2.1 -0.8,-0.5 -1.8,-1.1 -3.3,-1.7 0.3,0.1 0.4,0.2 0.3,0.3 -0.1,0 -0.5,0 -1,-0.1 -1,-0.2 -2.6,-0.3 -3.8,-0.5 -0.9,-0.2 -1.9,-0.1 -2.9,0.1 -1,0.3 -2,0.8 -2.9,1.5 -1.8,1.4 -3.2,3.2 -4.3,5.1 -0.6,1 -0.9,2.1 -1.1,3.4 -0.4,1.7 -0.4,3.3 -0.1,5 0.3,1.7 1,3.3 1.9,4.6 1,1.4 2.1,2.5 3.5,3.5 1.4,1 3,1.7 4.8,2.1 1.9,0.4 3.5,0.1 5,-0.3 1.1,-0.2 2.3,-0.5 3.1,-0.9 1.3,-0.6 2.3,-1.5 3.1,-2.3 -0.9,0.9 -1.7,1.5 -3,2.2 -0.5,0.2 -0.3,0 0,-0.2 0.3,-0.3 0.7,-0.6 1,-0.8 0.2,-0.2 0.7,-0.1 0.9,-0.4 0.5,-0.4 0.8,-0.8 1.2,-1.3 0.1,-0.2 0.3,0 0.4,-0.1 0.6,-0.7 0.7,-1.4 1,-1.8 0.3,-0.3 0.5,-0.6 0.7,-0.9 0.1,-0.2 0.3,-0.4 0.4,-0.6 0,-0.1 0.1,-0.3 0.1,-0.5 0.3,-1.1 0.5,-2.4 0.5,-3.5 v 0 c -0.3,1 -0.5,1.6 -0.8,2.2 z m -4.9,-8.9 c 0,0 0,-0.1 0,-0.2 v 0 c 0,0.1 0,0.1 0,0.2 z m 0,11.2 v 0 c 0,0 0,0 0,0 -0.1,0.1 -0.1,0.1 -0.2,0.2 -0.1,0.1 -0.2,0.2 -0.3,0.2 -0.8,0 -1.2,0.2 -1.8,0.4 -0.6,0.2 -1.3,0.6 -2.4,0.5 0.7,0 0.5,0.3 -0.1,0.4 -0.6,0.2 -1.7,0.1 -2.3,-0.4 -0.9,-0.7 -1.8,-1 -2.7,-1.7 -0.9,-0.6 -1.9,-1.5 -2.3,-2.5 -0.2,-0.5 -0.4,-1 -0.5,-1.7 0,-0.8 0,-1.7 0.2,-2.5 0.2,-0.8 0.4,-1.5 0.8,-2.2 0.4,-0.7 1,-1.4 1.7,-1.9 0.7,-0.5 1.4,-0.9 2.3,-1.1 0.9,-0.2 1.8,-0.5 2.7,-0.5 0.6,0 1.2,0.4 1.6,0.6 0.7,0.3 1.3,0.6 1.9,1 -0.6,-0.5 -1.1,-0.7 -1.8,-1 -0.5,-0.2 0.5,-0.2 0.9,-0.1 0.2,0 0.2,0.5 0.4,0.5 0.3,0.2 0.6,0.3 1,0.5 0.2,0.1 -0.1,0.3 0,0.3 0.4,0.3 1,0.4 1.1,0.7 0.1,0.2 0.2,0.5 0.3,0.7 0.1,0.1 0.1,0.3 0.2,0.4 0.1,0.1 0.1,0.1 0.2,0.2 0.5,0.6 0.8,1.3 1.1,2.1 v 0 c -0.1,-0.5 -0.1,-0.9 -0.1,-1.4 0,0.2 -0.1,0.2 -0.2,0 l 0.1,-0.2 c 0.2,0.4 0.4,0.8 0.3,1.2 0,0 0.1,0.2 0.1,0.3 0,0.1 -0.1,0.1 -0.2,0.2 0,0.1 0,0.2 0.1,0.3 0.1,-0.1 0.1,-0.3 0.2,-0.5 0,0 0,0 0,0 0.1,0.4 0.1,0.9 0.1,1.3 -0.1,2.2 -0.9,4.1 -2.4,5.7 z m 2.2,2.1 v 0 c 0.1,0 0.2,-0.1 0.2,-0.1 0,0 -0.1,0 -0.2,0.1 z" class="st0"></path> <path style="fill:#551520" id="path32" d="m 230,138.7 c -0.2,-0.2 -0.5,-0.4 -0.8,-0.6 -0.3,-0.1 -0.7,-0.3 -1,-0.3 -0.4,0 -0.6,0 -1,0.1 -0.3,0.1 -0.6,0.2 -0.9,0.4 l -0.1,0.1 c -0.5,0.3 -0.9,0.6 -1.3,0.8 -1.3,0.6 -2.6,0.9 -3.8,0.9 0.7,0 1.3,0 1.9,-0.1 0.6,-0.1 1.2,-0.3 1.9,-0.7 0.4,-0.2 0.3,-0.1 0,0.2 -0.3,0.3 -0.9,0.6 -1.2,0.7 -0.3,0.1 -0.8,-0.1 -1.1,0 -0.6,0.1 -1.3,0.2 -2,0.2 -0.3,0 -0.2,-0.3 -0.4,-0.3 -0.9,-0.1 -1.8,-0.1 -2.3,-0.5 -0.4,-0.3 -0.7,-0.6 -1,-0.9 -0.2,-0.2 -0.4,-0.4 -0.6,-0.6 -0.1,-0.1 -0.3,-0.2 -0.4,-0.4 -1,-0.9 -1.8,-2.3 -2.1,-3.7 v 0 c 0.1,0.9 0.3,1.7 0.6,2.6 -0.1,-0.4 0,-0.4 0.2,0 0,0.1 0,0.3 0,0.4 -0.5,-0.6 -0.8,-1.4 -0.8,-2.2 0,0 -0.1,-0.3 -0.2,-0.5 0,-0.3 0.1,-0.3 0.2,-0.3 0,-0.2 -0.1,-0.3 -0.1,-0.5 -0.1,0.2 -0.1,0.6 -0.1,0.9 0,0 0,0.1 0,0.1 -0.1,-0.5 -0.1,-1 -0.1,-1.6 0,-2.3 0.8,-4.3 2.4,-5.9 1.5,-1.5 3.3,-2.3 5.4,-2.4 0,0 0,0 0,0 0,0 0,0 0,0 0.2,0 0.3,0 0.5,0 0.2,0 0.4,0 0.6,0 1.1,0.6 1.9,1 2.9,1.6 0.2,0.1 0.5,0.3 0.8,0.5 0.1,0.1 0.3,0.2 0.4,0.3 0.2,0.2 0.4,0.4 0.7,0.5 0.6,0.3 1.4,0.3 2.1,-0.1 0.4,-0.2 0.7,-0.5 0.9,-0.9 0.1,-0.2 0.2,-0.5 0.3,-0.7 0,0.1 -0.1,0.2 -0.1,0.3 -0.1,0.2 -0.2,0.4 -0.3,0.4 -0.2,0.2 -0.2,0.1 -0.1,-0.1 0.1,-0.2 0.2,-0.6 0.2,-1.1 0,-0.2 0,-0.5 -0.1,-0.8 -0.1,-0.3 -0.3,-0.6 -0.5,-0.9 v 0 0 c -1,-0.9 -2.4,-1.8 -3.6,-2.6 -1,-0.7 -2.3,-1.1 -3.7,-1.2 -1.4,-0.1 -2.9,0 -4.4,0.5 -1.5,0.5 -2.9,1.3 -4.1,2.3 -1.2,1 -2.2,2.1 -3.1,3.3 -0.9,1.2 -1.5,2.8 -1.8,4.5 -0.2,1.1 -0.3,2.3 -0.3,3.4 0,1.1 0.3,2.3 0.6,3.4 0.8,2.2 2.2,4.1 3.9,5.6 1.7,1.5 3.9,2.6 6.2,2.9 1.2,0.2 2.3,0.2 3.5,0.2 1.2,-0.1 2.4,-0.3 3.5,-0.8 1.5,-0.5 2.6,-1.4 3.6,-2.3 l 0.1,-0.1 c 0.2,-0.3 0.4,-0.6 0.6,-1 0.2,-0.4 0.2,-0.8 0.2,-1.2 0,-0.4 -0.1,-0.8 -0.3,-1.1 0,-0.2 -0.2,-0.5 -0.5,-0.7 z" class="st0"></path> <path style="fill:#551520" id="path34" d="m 254.5,136.3 c 0.1,-0.3 0.2,-0.2 0.1,0.1 l -0.2,0.2 c 0.1,-0.6 0.2,-1.2 0.5,-1.7 0,0 0,-0.3 0,-0.4 0.1,-0.2 0.2,-0.2 0.2,-0.2 0,-0.1 0,-0.3 0,-0.4 -0.1,0.1 -0.2,0.4 -0.3,0.6 0,0 0,0.1 0,0.1 0.1,-0.6 0.2,-1.2 0.2,-1.9 0,-1.6 -0.3,-3 -0.8,-4.4 -0.4,-1.1 -1.1,-2.1 -1.9,-3 0,0 -0.1,-0.1 -0.1,-0.1 -0.1,-0.1 -0.2,-0.2 -0.2,-0.3 0,0 0,0 0,0 0,0 -0.1,-0.1 -0.1,-0.1 -0.1,-0.1 -0.1,-0.1 -0.2,-0.2 -0.1,-0.1 -0.2,-0.2 -0.3,-0.3 0,0 0,0 0,0 -0.2,-1 -0.8,-1.6 -1.6,-2.1 -0.8,-0.5 -1.8,-1.1 -3.3,-1.7 0.3,0.1 0.4,0.2 0.3,0.3 -0.1,0 -0.5,0 -1,-0.1 -1,-0.2 -2.6,-0.3 -3.8,-0.5 -0.9,-0.2 -1.9,-0.1 -2.9,0.1 -1,0.3 -2,0.8 -2.9,1.5 -1.8,1.4 -3.2,3.2 -4.3,5.1 -0.6,1 -0.9,2.1 -1.1,3.4 -0.4,1.7 -0.4,3.3 -0.1,5 0.3,1.7 1,3.3 1.9,4.6 1,1.4 2.1,2.5 3.5,3.5 1.4,1 3,1.7 4.8,2.1 1.9,0.4 3.5,0.1 5,-0.3 1.1,-0.2 2.3,-0.5 3.1,-0.9 1.3,-0.6 2.3,-1.5 3.1,-2.3 -0.9,0.9 -1.7,1.5 -3,2.2 -0.5,0.2 -0.3,0 0,-0.2 0.3,-0.3 0.7,-0.6 1,-0.8 0.2,-0.2 0.7,-0.1 0.9,-0.4 0.5,-0.4 0.8,-0.8 1.2,-1.3 0.1,-0.2 0.3,0 0.4,-0.1 0.6,-0.7 0.7,-1.4 1,-1.8 0.3,-0.3 0.5,-0.6 0.7,-0.9 0.1,-0.2 0.3,-0.4 0.4,-0.6 0,-0.1 0.1,-0.3 0.1,-0.5 0.3,-1.1 0.5,-2.4 0.5,-3.5 v 0 c -0.3,1 -0.4,1.6 -0.8,2.2 z m -4.8,-8.9 c 0,0 0,-0.1 0,-0.2 v 0 c 0,0.1 0,0.1 0,0.2 z m -0.1,11.2 v 0 c 0,0 0,0 0,0 -0.1,0.1 -0.1,0.1 -0.2,0.2 -0.1,0.1 -0.2,0.2 -0.3,0.2 -0.8,0 -1.2,0.2 -1.8,0.4 -0.6,0.2 -1.3,0.6 -2.4,0.5 0.7,0 0.5,0.3 -0.1,0.4 -0.6,0.2 -1.7,0.1 -2.3,-0.4 -0.9,-0.7 -1.8,-1 -2.7,-1.7 -0.9,-0.6 -1.9,-1.5 -2.3,-2.5 -0.2,-0.5 -0.4,-1 -0.5,-1.7 0,-0.8 0,-1.7 0.2,-2.5 0.2,-0.8 0.4,-1.5 0.8,-2.2 0.4,-0.7 1,-1.4 1.7,-1.9 0.7,-0.5 1.4,-0.9 2.3,-1.1 0.9,-0.2 1.8,-0.5 2.7,-0.5 0.6,0 1.2,0.4 1.6,0.6 0.7,0.3 1.3,0.6 1.9,1 -0.6,-0.5 -1.1,-0.7 -1.8,-1 -0.5,-0.2 0.5,-0.2 0.9,-0.1 0.2,0 0.2,0.5 0.4,0.5 0.3,0.2 0.6,0.3 1,0.5 0.2,0.1 -0.1,0.3 0,0.3 0.4,0.3 1,0.4 1.1,0.7 0.1,0.2 0.2,0.5 0.3,0.7 0.1,0.1 0.1,0.3 0.2,0.4 0.1,0.1 0.1,0.1 0.2,0.2 0.5,0.6 0.8,1.3 1.1,2.1 v 0 c -0.1,-0.5 -0.1,-0.9 -0.1,-1.4 0,0.2 -0.1,0.2 -0.2,0 l 0.1,-0.2 c 0.2,0.4 0.4,0.8 0.3,1.2 0,0 0.1,0.2 0.1,0.3 0,0.1 -0.1,0.1 -0.2,0.2 0,0.1 0,0.2 0.1,0.3 0.1,-0.1 0.1,-0.3 0.2,-0.5 0,0 0,0 0,0 0.1,0.4 0.1,0.9 0.1,1.3 -0.1,2.2 -0.9,4.1 -2.4,5.7 z m 2.2,2.1 v 0 c 0.1,0 0.2,-0.1 0.2,-0.1 0,0 -0.1,0 -0.2,0.1 z" class="st0"></path> </g> <g transform="translate(-28.1,-103.667)" style="display:none" id="g44" class="st2"> <path style="display:inline;fill:#fbb040" id="path38" d="m 195.8,259.7 c 1.3,2.3 0.9,7.9 0.9,7.9 0,0 8.2,5.8 19.9,0 l -0.9,-0.5 c 0.6,0.3 0.9,0.5 0.9,0.5 -0.3,-3.3 0.6,-6.5 2.1,-8 1.5,-1.5 4,-5.8 0.9,-9.6 -2.4,-3 -5.6,-2.3 -6.9,-1.8 -3.1,-2.9 -7.2,-1.3 -8.6,-0.6 -4.5,-1.9 -7.9,0.9 -9,2 -0.9,0 -1.9,0.2 -2.9,0.8 -0.5,0.3 -1,0.6 -1.4,1.1 -0.2,0.2 -0.4,0.5 -0.5,0.8 l -0.1,0.2 v 0.1 0 0 0 0.1 c 0,0.2 -0.1,0.3 -0.1,0.5 0,0.2 0,0.3 -0.1,0.5 0,0.2 0,0.3 0,0.5 0,0.3 0,0.6 0.1,0.9 0.1,0.6 0.3,1.2 0.6,1.8 0.6,1.1 1.7,2.1 3,2.6 0.7,0.2 1.4,0.3 2.1,0.2 z" class="st3"></path> <path style="display:inline;fill:none;stroke:#551520;stroke-width:1.12479997;stroke-linecap:round;stroke-linejoin:round;stroke-miterlimit:10" id="path40" d="m 206.9,269.3 c -5.5,0 -9.4,-2.1 -9.4,-2.1 1,-0.5 3.3,-1.1 7.8,-1.5 5.4,-0.5 8.9,0.8 10.4,1.5 0.1,0 -3.3,2.1 -8.8,2.1 z" class="st4"></path> <path style="display:inline;fill:none;stroke:#551520;stroke-width:1.12479997;stroke-linecap:round;stroke-linejoin:round;stroke-miterlimit:10" id="path42" d="m 192,256.2 c -0.4,-0.8 -0.7,-1.8 -0.6,-2.7 l 0.1,-0.3 v 0 0 c 0,0 0,0 0,0 v 0 -0.1 l 0.1,-0.2 c 0.1,-0.1 0.2,-0.3 0.3,-0.5 0.2,-0.4 0.6,-0.7 0.9,-0.9 0.7,-0.5 1.6,-0.8 2.4,-0.9 0.8,-0.1 1.6,-0.1 2.3,0 0.7,0.1 1.2,0.4 1.7,0.6 0.4,0.2 0.7,0.5 1,0.7 0.2,0.2 0.3,0.3 0.3,0.3 0,0 -0.1,-0.1 -0.2,-0.3 -0.2,-0.2 -0.4,-0.5 -0.8,-0.9 -0.4,-0.3 -1,-0.7 -1.7,-0.9 -0.3,-0.1 -0.6,-0.2 -1,-0.3 5.1,-3.8 11,0.3 11,0.3 -0.8,-0.7 -1.5,-1.3 -2.3,-1.7 6.2,-2.8 9.3,2.8 9.3,2.8 -0.5,-1 -1,-1.8 -1.5,-2.5 4,-1.1 5.7,1.2 6.6,3.6 1,2.4 -0.1,4.3 -2.3,7.4 -2.2,3.1 -2.1,6.3 -2.1,6.3 -8.4,-3.5 -17.5,-0.1 -17.5,-0.1 0.3,-2.5 -0.5,-5.1 -1,-6.3 0.2,0 0.5,-0.1 0.7,-0.2 0.3,-0.1 0.5,-0.2 0.8,-0.3 0.3,-0.1 0.5,-0.2 0.8,-0.3 0.2,-0.1 0.5,-0.2 0.8,-0.2 0.3,-0.1 0.5,-0.2 0.8,-0.2 1,-0.2 2.1,-0.4 3,-0.5 1,-0.1 1.9,-0.2 2.8,-0.2 0.9,0 1.7,-0.1 2.4,0 0.7,0 1.3,0 1.9,0 1,0 1.6,0.1 1.6,0.1 0,0 -0.4,-0.1 -1,-0.3 0.9,-0.6 0.8,-1.8 0.8,-1.8 -0.3,0.9 -0.9,1.4 -1.5,1.7 -0.5,-0.1 -1,-0.2 -1.7,-0.3 -0.3,0 -0.6,-0.1 -0.9,-0.1 0.9,-1 0.2,-2.3 0.2,-2.3 0.2,1 -0.5,1.8 -1,2.2 -0.2,0 -0.5,0 -0.8,-0.1 -0.4,0 -0.9,0 -1.4,-0.1 -0.5,0 -1,0 -1.5,0 -0.1,0 -0.3,0 -0.5,0 -1.1,-0.9 -1.6,-2.7 -1.6,-2.7 -0.1,1.6 0.2,2.4 0.5,2.8 -0.6,0.1 -1.2,0.1 -1.8,0.2 -0.3,0 -0.6,0.1 -0.8,0.2 -0.3,0.1 -0.6,0.1 -0.9,0.2 0,0 -0.1,0 -0.1,0 -0.6,-0.3 -1.3,-0.9 -1.5,-2.1 0,0 -0.6,1.4 0.6,2.4 -0.2,0.1 -0.4,0.1 -0.6,0.2 -1,0.2 -2,0.3 -2.9,0 -0.9,-0.2 -1.7,-0.9 -2.2,-1.7 z" class="st4"></path> </g> <rect style="fill:none;stroke:#551520;stroke-width:0.49869999;stroke-miterlimit:10" x="-28.1" id="rect46" height="283.5" width="283.5" class="st5" y="-103.667"></rect> </svg> 